<svg width="19" height="19" viewBox="0 0 19 19" fill="none" xmlns="http://www.w3.org/2000/svg">
<path d="M4.20259 9.25653V9.22117L4.16926 9.20938L3.85688 9.09898C2.74541 8.70613 1.98701 7.65188 1.98701 6.45357C1.98701 4.90448 3.24279 3.6487 4.79188 3.6487C5.35584 3.6487 5.89365 3.81491 6.35145 4.12183L6.85407 4.45879L6.90771 4.49476L6.92909 4.43382L7.12944 3.86284C7.52052 2.74831 8.57635 1.98701 9.77695 1.98701C10.8941 1.98701 11.8908 2.64592 12.339 3.64828L12.5328 4.08177L12.5535 4.12804L12.5995 4.10673L13.0304 3.90707C13.3959 3.73764 13.7952 3.6487 14.2081 3.6487C15.7572 3.6487 17.013 4.90448 17.013 6.45357C17.013 7.65188 16.2546 8.70613 15.1431 9.09898L14.8307 9.20938L14.7974 9.22117V9.25653V15.8661C14.7974 16.4995 14.2839 17.013 13.6505 17.013H5.3495C4.71608 17.013 4.20259 16.4995 4.20259 15.8661V9.25653ZM0.95 6.45357C0.95 7.96737 1.83358 9.31311 3.16559 9.93528V15.8661C3.16559 17.0722 4.14336 18.05 5.3495 18.05H13.6505C14.8566 18.05 15.8344 17.0722 15.8344 15.8661V9.93528C17.1664 9.31311 18.05 7.96737 18.05 6.45357C18.05 4.33176 16.3299 2.61169 14.2081 2.61169C13.8125 2.61169 13.4248 2.6717 13.0555 2.78774C12.3682 1.66413 11.1377 0.95 9.77695 0.95C8.34135 0.95 7.05709 1.74464 6.39759 2.9624C5.90005 2.73322 5.35464 2.61169 4.79188 2.61169C2.67007 2.61169 0.95 4.33176 0.95 6.45357Z" fill="#333333" stroke="#333333" stroke-width="0.1"/>
<path d="M3.44219 15.5075V15.5575H3.49219H15.5071H15.5571V15.5075V14.5704V14.5204H15.5071H3.49219H3.44219V14.5704V15.5075Z" fill="#333333" stroke="#333333" stroke-width="0.1"/>
<path d="M6.72925 10.0893C6.44288 10.0893 6.21074 10.3214 6.21074 10.6078V12.2695C6.21074 12.5559 6.44288 12.788 6.72925 12.788C7.01561 12.788 7.24775 12.5559 7.24775 12.2695V10.6078C7.24775 10.3214 7.01561 10.0893 6.72925 10.0893Z" fill="#333333" stroke="#333333" stroke-width="0.1"/>
<path d="M9.50073 10.6432C9.21437 10.6432 8.98223 10.8753 8.98223 11.1617V12.8234C8.98223 13.1097 9.21437 13.3419 9.50073 13.3419C9.78709 13.3419 10.0192 13.1097 10.0192 12.8234V11.1617C10.0192 10.8753 9.78709 10.6432 9.50073 10.6432Z" fill="#333333" stroke="#333333" stroke-width="0.1"/>
<path d="M12.2693 10.0893C11.9829 10.0893 11.7508 10.3214 11.7508 10.6078V12.2695C11.7508 12.5559 11.9829 12.788 12.2693 12.788C12.5556 12.788 12.7878 12.5559 12.7878 12.2695V10.6078C12.7878 10.3214 12.5556 10.0893 12.2693 10.0893Z" fill="#333333" stroke="#333333" stroke-width="0.1"/>
</svg>
