<svg width="21" height="21" viewBox="0 0 21 21" fill="none" xmlns="http://www.w3.org/2000/svg">
<g clip-path="url(#clip0_77_2480)">
<path d="M20.7296 12.8643C22.0349 7.21479 18.5132 1.57674 12.8637 0.271402C7.21414 -1.03394 1.57609 2.48774 0.270753 8.13729C-1.03459 13.7868 2.48709 19.4249 8.13664 20.7302C13.7862 22.0356 19.4242 18.5139 20.7296 12.8643Z" fill="url(#paint0_linear_77_2480)"/>
<path d="M6.42764 8.50017C6.97718 8.50017 7.42266 7.77004 7.42266 6.86938C7.42266 5.96872 6.97718 5.23859 6.42764 5.23859C5.8781 5.23859 5.43262 5.96872 5.43262 6.86938C5.43262 7.77004 5.8781 8.50017 6.42764 8.50017Z" fill="black"/>
<path d="M14.3026 8.50017C14.8522 8.50017 15.2977 7.77004 15.2977 6.86938C15.2977 5.96872 14.8522 5.23859 14.3026 5.23859C13.7531 5.23859 13.3076 5.96872 13.3076 6.86938C13.3076 7.77004 13.7531 8.50017 14.3026 8.50017Z" fill="black"/>
<path d="M4.55255 11.2348C8.49937 10.7 12.5003 10.7 16.4471 11.2348C16.4471 11.2348 16.654 16.53 10.5009 16.53C4.34789 16.53 4.55255 11.2348 4.55255 11.2348Z" fill="#5B0600"/>
<mask id="mask0_77_2480" style="mask-type:luminance" maskUnits="userSpaceOnUse" x="4" y="10" width="13" height="7">
<path d="M4.55255 11.2348C8.49937 10.7 12.5003 10.7 16.4471 11.2348C16.4471 11.2348 16.654 16.53 10.5009 16.53C4.34789 16.53 4.55255 11.2348 4.55255 11.2348Z" fill="white"/>
</mask>
<g mask="url(#mask0_77_2480)">
<path d="M10.4991 19.1341C13.2865 19.1341 15.5461 17.9672 15.5461 16.5279C15.5461 15.0885 13.2865 13.9216 10.4991 13.9216C7.71175 13.9216 5.45215 15.0885 5.45215 16.5279C5.45215 17.9672 7.71175 19.1341 10.4991 19.1341Z" fill="#8E1112"/>
</g>
</g>
<defs>
<linearGradient id="paint0_linear_77_2480" x1="1.40629" y1="15.7495" x2="19.5954" y2="5.24836" gradientUnits="userSpaceOnUse">
<stop stop-color="#EBB34D"/>
<stop offset="0.03" stop-color="#ECB64D"/>
<stop offset="0.18" stop-color="#EEC04F"/>
<stop offset="0.55" stop-color="#F1CC51"/>
<stop offset="1" stop-color="#F3D652"/>
</linearGradient>
<clipPath id="clip0_77_2480">
<rect width="21" height="21" fill="white"/>
</clipPath>
</defs>
</svg>
