<svg width="22" height="20" viewBox="0 0 22 20" fill="none" xmlns="http://www.w3.org/2000/svg">
<path d="M10.8788 18.6374L10.8762 18.6358C10.3998 18.3399 9.93253 18.0533 9.47579 17.7732C7.11516 16.3252 5.03556 15.0495 3.4291 13.555C1.53491 11.7928 0.35 9.703 0.35 6.84617C0.35 3.44249 2.76529 0.35 6.27564 0.35C8.27952 0.35 9.8682 1.24653 10.7777 1.99459L11 2.17747L11.2223 1.99459C12.1318 1.24653 13.7205 0.35 15.7244 0.35C19.2347 0.35 21.65 3.44249 21.65 6.84617C21.65 9.703 20.4651 11.7928 18.5709 13.555C16.9644 15.0495 14.8848 16.3252 12.5242 17.7732C12.0675 18.0533 11.6002 18.3399 11.1238 18.6358L11.1212 18.6375L11 18.7142L10.8788 18.6374ZM10.849 2.56218L10.8474 2.56062C10.1814 1.9129 8.37339 0.737234 6.27564 0.737234C2.97171 0.737234 0.778205 3.6457 0.778205 6.84617C0.778205 9.655 1.8771 11.556 3.73676 13.2861C5.28611 14.7275 7.41936 16.0382 9.79411 17.4974C10.1302 17.7039 10.4711 17.9134 10.8159 18.1266L11 18.2405L11.1841 18.1266C11.5289 17.9134 11.8698 17.7039 12.2059 17.4974C14.5806 16.0382 16.7139 14.7275 18.2632 13.2861C20.1229 11.556 21.2218 9.655 21.2218 6.84617C21.2218 3.6457 19.0283 0.737234 15.7244 0.737234C13.6266 0.737234 11.8186 1.9129 11.1526 2.56061L11.151 2.56218L11 2.71094L10.849 2.56218Z" fill="#6B6B6B" stroke="#6B6B6B" stroke-width="0.7"/>
</svg>
