<svg width="17" height="21" viewBox="0 0 17 21" fill="none" xmlns="http://www.w3.org/2000/svg">
<path d="M10.3292 1.05748L10.3292 1.05747L10.3287 1.05702C10.2523 0.990414 10.1525 0.951613 10.0469 0.951613H3.42188C2.04813 0.951613 0.951613 2.0096 0.951613 3.31263V18.0741C0.951613 19.3772 2.04813 20.4351 3.42188 20.4351H13.5781C14.9519 20.4351 16.0484 19.3772 16.0484 18.0741V6.37318C16.0484 6.27177 16.0201 6.16249 15.9332 6.08605C15.9331 6.08599 15.933 6.08593 15.933 6.08586L10.3292 1.05748ZM10.4755 5.97052V2.25478L14.6235 5.97052H10.4755ZM15.2224 18.0741C15.2224 18.9413 14.501 19.6495 13.5781 19.6495H3.42188C2.49904 19.6495 1.77755 18.9413 1.77755 18.0741V3.31263C1.77755 2.44544 2.49904 1.73726 3.42188 1.73726H9.64953V6.37318C9.64953 6.59296 9.81819 6.75616 10.0417 6.75616H15.2224V18.0741Z" fill="#6B6B6B" stroke="#6B6B6B" stroke-width="0.0967742"/>
<path d="M12.715 14.6298V14.5814H12.6666H4.28122H4.23283V14.6298V15.3187V15.367H4.28122H12.6666H12.715V15.3187V14.6298Z" fill="#6B6B6B" stroke="#6B6B6B" stroke-width="0.0967742"/>
<path d="M12.715 11.9235V11.8751H12.6666H4.28122H4.23283V11.9235V12.6124V12.6608H4.28122H12.6666H12.715V12.6124V11.9235Z" fill="#6B6B6B" stroke="#6B6B6B" stroke-width="0.0967742"/>
<path d="M12.715 8.72519V8.6768H12.6666H4.28122H4.23283V8.72519V9.41406V9.46245H4.28122H12.6666H12.715V9.41406V8.72519Z" fill="#6B6B6B" stroke="#6B6B6B" stroke-width="0.0967742"/>
<path d="M7.45461 5.82211V5.77373H7.40622H4.28122H4.23283V5.82211V6.51098V6.55937H4.28122H7.40622H7.45461V6.51098V5.82211Z" fill="#6B6B6B" stroke="#6B6B6B" stroke-width="0.0967742"/>
</svg>
