<svg width="18" height="22" viewBox="0 0 18 22" fill="none" xmlns="http://www.w3.org/2000/svg">
<path d="M18 9C18 4.03858 13.9615 0 9 0C4.03854 0 0 4.03854 0 9C0 13.8441 8.1225 20.6737 8.46685 20.9648C8.62117 21.0931 8.81124 21.1565 8.99967 21.1565C9.18649 21.1565 9.37818 21.0948 9.53249 20.9648C9.87689 20.674 17.9993 13.8446 17.9993 9H18ZM9 19.2264C6.54208 17.0674 1.66351 12.1274 1.66351 9C1.66351 4.95331 4.95805 1.66351 9 1.66351C13.042 1.66351 16.3365 4.95805 16.3365 9C16.3365 12.1304 11.4583 17.0672 9 19.2264Z" fill="#EA4424"/>
<path d="M8.99984 5.06042C6.82946 5.06042 5.06198 6.8279 5.06198 8.99828C5.06198 11.1687 6.82946 12.9361 8.99984 12.9361C11.1702 12.9361 12.9377 11.1687 12.9377 8.99828C12.9377 6.8279 11.1702 5.06042 8.99984 5.06042ZM8.99984 11.274C7.7441 11.274 6.72549 10.2555 6.72549 8.9997C6.72549 7.74396 7.74406 6.72535 8.99984 6.72535C10.2556 6.72535 11.2742 7.74392 11.2742 8.9997C11.2742 10.2554 10.2556 11.274 8.99984 11.274Z" fill="#EA4424"/>
</svg>
