<svg width="12" height="19" viewBox="0 0 12 19" fill="none" xmlns="http://www.w3.org/2000/svg">
<path d="M7.99619 10.4174C7.99619 10.557 7.98673 10.6966 7.9678 10.8362C7.97537 10.7853 7.98105 10.7363 7.98862 10.6853C7.95077 10.9457 7.88263 11.2003 7.78043 11.4437C7.79936 11.3984 7.81829 11.3531 7.83721 11.3079C7.76151 11.4833 7.67256 11.6531 7.56657 11.8115C7.53819 11.853 7.5098 11.8927 7.48141 11.9323C7.45491 11.9662 7.39056 12.036 7.5098 11.8964C7.49466 11.9153 7.47952 11.9342 7.46248 11.9549C7.40192 12.0285 7.33757 12.0983 7.27133 12.1643C7.20509 12.2303 7.13317 12.2945 7.06126 12.3548C7.04801 12.3662 7.01773 12.4001 7.00259 12.402C7.0253 12.402 7.12939 12.3077 7.03855 12.3737C7.00259 12.4001 6.96474 12.4265 6.92688 12.4529C6.76412 12.5624 6.5919 12.6529 6.4121 12.7303C6.45753 12.7114 6.50295 12.6925 6.54837 12.6737C6.30423 12.7755 6.05062 12.8434 5.78755 12.8812C5.83865 12.8736 5.88786 12.868 5.93896 12.8604C5.66075 12.8981 5.37876 12.8981 5.09866 12.8604C5.14976 12.868 5.19896 12.8736 5.25006 12.8812C4.98889 12.8434 4.73339 12.7755 4.48925 12.6737C4.53467 12.6925 4.58009 12.7114 4.62551 12.7303C4.4495 12.6548 4.27917 12.5661 4.1202 12.4605C4.07856 12.4322 4.03882 12.4039 3.99907 12.3756C3.96501 12.3492 3.89498 12.285 4.03503 12.4039C4.0161 12.3888 3.99718 12.3737 3.97636 12.3567C3.90255 12.2964 3.83252 12.2322 3.76628 12.1662C3.70004 12.1002 3.6357 12.0285 3.57513 11.9568C3.56378 11.9436 3.52971 11.9134 3.52782 11.8983C3.52782 11.921 3.62245 12.0247 3.55621 11.9342C3.52971 11.8983 3.50322 11.8606 3.47672 11.8229C3.36695 11.6606 3.27611 11.489 3.19851 11.3097C3.21744 11.355 3.23636 11.4003 3.25529 11.4456C3.15309 11.2022 3.08496 10.9494 3.04711 10.6872C3.05468 10.7381 3.06035 10.7872 3.06792 10.8381C3.0244 10.5136 3.03954 10.1816 3.03954 9.85338C3.03954 9.29499 3.03954 8.7366 3.03954 8.1782C3.03954 7.48398 3.03954 6.79165 3.03954 6.09743C3.03954 5.50885 3.03954 4.92027 3.03954 4.33169C3.03954 4.07136 3.03575 3.81102 3.03954 3.55069C3.04143 3.42807 3.05089 3.30734 3.06792 3.18472C3.06035 3.23565 3.05468 3.2847 3.04711 3.33563C3.08496 3.0753 3.15309 2.82063 3.25529 2.57727C3.23636 2.62255 3.21744 2.66782 3.19851 2.7131C3.27422 2.53766 3.36317 2.36788 3.46915 2.20941C3.49754 2.16791 3.52593 2.12829 3.55432 2.08868C3.58081 2.05472 3.64516 1.98492 3.52593 2.12452C3.54107 2.10566 3.55621 2.08679 3.57324 2.06604C3.6338 1.99247 3.69815 1.92267 3.76439 1.85664C3.83063 1.79062 3.90255 1.72648 3.97447 1.66611C3.98772 1.65479 4.018 1.62083 4.03314 1.61895C4.01043 1.61895 3.90634 1.71327 3.99718 1.64725C4.03314 1.62083 4.07099 1.59442 4.10884 1.56801C4.2716 1.4586 4.44383 1.36805 4.62362 1.2907C4.5782 1.30957 4.53278 1.32843 4.48736 1.3473C4.7315 1.24543 4.9851 1.17751 5.24817 1.13979C5.19707 1.14733 5.14786 1.15299 5.09676 1.16054C5.37497 1.12281 5.65697 1.12281 5.93707 1.16054C5.88597 1.15299 5.83676 1.14733 5.78566 1.13979C6.04684 1.17751 6.30233 1.24543 6.54648 1.3473C6.50105 1.32843 6.45563 1.30957 6.41021 1.2907C6.58622 1.36616 6.75655 1.45483 6.91553 1.56047C6.95716 1.58876 6.99691 1.61706 7.03665 1.64536C7.07072 1.67177 7.14074 1.73591 7.00069 1.61706C7.01962 1.63215 7.03855 1.64725 7.05936 1.66422C7.13317 1.72459 7.2032 1.78873 7.26944 1.85476C7.33568 1.92078 7.40003 1.99247 7.46059 2.06416C7.47194 2.07736 7.50601 2.10754 7.5079 2.12264C7.5079 2.1 7.41327 1.99624 7.47951 2.08679C7.50601 2.12264 7.53251 2.16036 7.559 2.19809C7.66877 2.36033 7.75962 2.532 7.83721 2.71121C7.81829 2.66594 7.79936 2.62066 7.78043 2.57539C7.88263 2.81874 7.95077 3.07153 7.98862 3.33375C7.98105 3.28281 7.97537 3.23377 7.9678 3.18283C8.00944 3.49598 7.99619 3.81857 7.99619 4.13361C7.99619 4.66748 7.99619 5.20135 7.99619 5.73522C7.99619 6.40681 7.99619 7.0765 7.99619 7.74809C7.99619 8.34232 7.99619 8.93467 7.99619 9.52891C7.99619 9.81943 7.99051 10.1118 7.99619 10.4042C7.99808 10.408 7.99619 10.4137 7.99619 10.4174C7.99619 10.7136 8.25736 10.9966 8.56396 10.9834C8.87245 10.9702 9.13173 10.7344 9.13173 10.4174C9.13173 9.82132 9.13173 9.22519 9.13173 8.62907C9.13173 7.52737 9.13173 6.42756 9.13173 5.32586C9.13173 4.71842 9.15066 4.10531 9.12984 3.49787C9.09956 2.60368 8.73808 1.74534 8.11731 1.10017C7.49466 0.45311 6.64678 0.0777031 5.75727 0.00979023C4.84884 -0.0600091 3.96122 0.247485 3.2515 0.802107C2.59857 1.31334 2.12353 2.08868 1.97402 2.90552C1.91345 3.23942 1.90399 3.56767 1.90399 3.90535C1.90399 4.28076 1.90399 4.65805 1.90399 5.03346C1.90399 6.12761 1.90399 7.22365 1.90399 8.3178C1.90399 9.01013 1.90399 9.70247 1.90399 10.3948C1.90399 11.1003 2.1046 11.8153 2.50394 12.402C2.9979 13.1302 3.7379 13.6754 4.59523 13.8999C5.47906 14.13 6.42914 14.0149 7.23348 13.5867C8.01511 13.1717 8.59803 12.468 8.91219 11.6493C9.06171 11.2588 9.12984 10.8325 9.13173 10.4156C9.13363 10.1194 8.87056 9.83641 8.56396 9.84961C8.25547 9.8647 7.99808 10.1005 7.99619 10.4174Z" fill="#EA4424"/>
<path d="M0 10.3627C0.00378515 11.4758 0.342556 12.5963 0.991709 13.5056C1.65979 14.4413 2.57579 15.143 3.65645 15.5392C4.72008 15.9297 5.92754 15.9637 7.01766 15.6562C8.07183 15.36 9.0484 14.7393 9.74486 13.8942C10.4868 12.9962 10.9277 11.9172 11.0205 10.757C11.0318 10.625 11.0356 10.4929 11.0356 10.3608C11.0356 10.0647 10.7744 9.7817 10.4678 9.79491C10.1593 9.80811 9.90005 10.0439 9.90005 10.3608C9.90005 10.5797 9.88491 10.7985 9.85653 11.0155C9.8641 10.9645 9.86977 10.9155 9.87734 10.8645C9.81867 11.3022 9.70133 11.7285 9.52911 12.136C9.54804 12.0907 9.56696 12.0455 9.58589 12.0002C9.48937 12.2247 9.3777 12.4435 9.24901 12.6529C9.18655 12.7548 9.12031 12.8548 9.05029 12.951C9.03325 12.9736 9.01622 12.9981 8.99919 13.0208C8.98973 13.034 8.97837 13.0472 8.96891 13.0604C8.93673 13.1057 9.0219 12.9849 9.02001 12.9944C9.00865 13.0434 8.92727 13.1094 8.8951 13.1472C8.73991 13.3283 8.57147 13.4999 8.39357 13.6584C8.35004 13.6961 8.30651 13.7339 8.26109 13.7697C8.23648 13.7905 8.20999 13.8112 8.18349 13.832C8.16646 13.8452 8.12671 13.8753 8.20242 13.8187C8.2838 13.7565 8.21945 13.8055 8.20052 13.8187C8.104 13.8904 8.00559 13.9583 7.90528 14.0244C7.6706 14.1753 7.42268 14.3036 7.16529 14.413C7.21071 14.3941 7.25613 14.3753 7.30155 14.3564C6.89275 14.5281 6.46503 14.645 6.02596 14.7035C6.07705 14.696 6.12626 14.6903 6.17736 14.6828C5.74207 14.7393 5.29921 14.7393 4.86391 14.6828C4.91501 14.6903 4.96422 14.696 5.01532 14.7035C4.57624 14.645 4.14852 14.5281 3.73973 14.3564C3.78515 14.3753 3.83057 14.3941 3.87599 14.413C3.65078 14.3168 3.43124 14.2055 3.22116 14.0772C3.11896 14.0149 3.01866 13.9489 2.92213 13.8791C2.89942 13.8621 2.87482 13.8452 2.85211 13.8282C2.83886 13.8187 2.82561 13.8074 2.81237 13.798C2.76694 13.7659 2.88807 13.8508 2.87861 13.8489C2.8294 13.8376 2.76316 13.7565 2.72531 13.7244C2.54362 13.5697 2.3714 13.4018 2.21242 13.2245C2.17457 13.1811 2.13672 13.1377 2.10076 13.0925C2.07994 13.0679 2.05912 13.0415 2.0383 13.0151C2.02505 12.9981 1.99477 12.9585 2.05155 13.034C2.11401 13.1151 2.0648 13.051 2.05155 13.0321C1.97963 12.9359 1.9115 12.8378 1.84526 12.7378C1.69385 12.5039 1.56516 12.2568 1.45539 12.0002C1.47432 12.0455 1.49324 12.0907 1.51217 12.136C1.33994 11.7285 1.2226 11.3022 1.16393 10.8645C1.1715 10.9155 1.17718 10.9645 1.18475 11.0155C1.15636 10.7985 1.14122 10.5797 1.14122 10.3608C1.14122 10.0647 0.880047 9.7817 0.57345 9.79491C0.261175 9.81 0 10.0458 0 10.3627Z" fill="#EA4424"/>
<path d="M6.08647 18.1105C6.08647 17.288 6.08647 16.4655 6.08647 15.643C6.08647 15.5279 6.08647 15.4128 6.08647 15.2977C6.08647 15.0016 5.8253 14.7186 5.5187 14.7318C5.21021 14.745 4.95093 14.9808 4.95093 15.2977C4.95093 16.1202 4.95093 16.9427 4.95093 17.7652C4.95093 17.8803 4.95093 17.9954 4.95093 18.1105C4.95093 18.4066 5.2121 18.6896 5.5187 18.6764C5.8253 18.6632 6.08647 18.4274 6.08647 18.1105Z" fill="#EA4424"/>
<path d="M2.3522 18.6764C3.0657 18.6764 3.7792 18.6764 4.49459 18.6764C5.63203 18.6764 6.76757 18.6764 7.90501 18.6764C8.16429 18.6764 8.42358 18.6764 8.68286 18.6764C8.97999 18.6764 9.26388 18.4161 9.25063 18.1105C9.23738 17.803 9.00081 17.5445 8.68286 17.5445C7.96936 17.5445 7.25586 17.5445 6.54047 17.5445C5.40303 17.5445 4.26748 17.5445 3.13005 17.5445C2.87076 17.5445 2.61148 17.5445 2.3522 17.5445C2.05507 17.5445 1.77118 17.8049 1.78443 18.1105C1.79768 18.418 2.03425 18.6764 2.3522 18.6764Z" fill="#EA4424"/>
</svg>
