<svg width="22" height="21" viewBox="0 0 22 21" fill="none" xmlns="http://www.w3.org/2000/svg">
<path d="M9.49816 18.3569L9.49816 18.3567C9.4936 17.1838 8.54434 16.2343 7.37559 16.2343C6.20248 16.2343 5.25301 17.1838 5.25301 18.3569C5.25301 19.53 6.20248 20.4794 7.37559 20.4794C8.54869 20.4794 9.49816 19.53 9.49816 18.3569ZM7.37559 19.489C6.75192 19.489 6.24347 18.9805 6.24347 18.3569C6.24347 17.7332 6.75192 17.2247 7.37559 17.2247C7.99925 17.2247 8.5077 17.7332 8.5077 18.3569C8.5077 18.9805 7.99925 19.489 7.37559 19.489Z" fill="#6B6B6B" stroke="#6B6B6B" stroke-width="0.0987654"/>
<path d="M16.208 16.2343C15.0349 16.2343 14.0854 17.1838 14.0854 18.3569C14.0854 19.53 15.0349 20.4794 16.208 20.4794C17.3811 20.4794 18.3306 19.53 18.3306 18.3569C18.3306 17.1838 17.3811 16.2343 16.208 16.2343ZM16.208 19.489C15.5843 19.489 15.0759 18.9805 15.0759 18.3569C15.0759 17.7332 15.5843 17.2247 16.208 17.2247C16.8317 17.2247 17.3401 17.7332 17.3401 18.3569C17.3401 18.9805 16.8317 19.489 16.208 19.489Z" fill="#6B6B6B" stroke="#6B6B6B" stroke-width="0.0987654"/>
<path d="M5.02832 2.41125L5.02834 2.4113L5.43199 3.63962L20.5594 3.86647C20.5595 3.86647 20.5596 3.86647 20.5598 3.86647L20.5601 3.86647L20.5594 3.91585C20.595 3.91585 20.6262 3.92031 20.6575 3.92922L5.02832 2.41125ZM5.02832 2.41125C4.74078 1.53949 3.9283 0.950617 3.01078 0.950617H1.44585C1.17336 0.950617 0.950617 1.17336 0.950617 1.44585C0.950617 1.71834 1.17336 1.94108 1.44585 1.94108H3.01078C3.50192 1.94108 3.93351 2.25708 4.08742 2.72309L4.08744 2.72314L4.61354 4.31034L4.61354 4.31036L7.03319 11.6182L6.82176 12.1317L5.02832 2.41125ZM21.0354 4.47574C21.0997 4.2129 20.9363 3.94613 20.67 3.88146L21.0354 4.47574ZM19.9163 9.14824L21.0353 4.47601L6.8217 12.1319C6.37434 13.2094 6.89033 14.4464 7.9675 14.8937L7.96796 14.8938C8.22782 14.9987 8.50159 15.0535 8.78451 15.0535H17.8352C18.1077 15.0535 18.3305 14.8307 18.3305 14.5582C18.3305 14.2858 18.1077 14.063 17.8352 14.063L8.78451 14.063L8.78417 14.063C8.16492 14.0673 7.65674 13.5676 7.6524 12.9485C7.65242 12.7992 7.68229 12.6495 7.73801 12.5079C7.73805 12.5078 7.73809 12.5077 7.73813 12.5076L7.89611 12.121L17.6619 11.1208L17.662 11.1208C18.7574 11.0072 19.6573 10.2163 19.9163 9.14837L19.9163 9.14824ZM18.9554 8.91558C18.7953 9.57729 18.2375 10.0617 17.5627 10.1309L7.9094 11.1211L5.76348 4.63504L19.9263 4.84708L18.9554 8.91558Z" fill="#6B6B6B" stroke="#6B6B6B" stroke-width="0.0987654"/>
</svg>
