<svg width="18" height="20" viewBox="0 0 18 20" fill="none" xmlns="http://www.w3.org/2000/svg">
<path d="M8.6676 0.111313L0.213058 6.6566C0.0805126 6.75846 -0.000650616 6.92406 3.92924e-06 7.09124V19.0909C3.1202e-05 19.3765 0.259858 19.6363 0.545458 19.6364H6.27273C6.55833 19.6363 6.81816 19.3765 6.81818 19.0909V15.2727C6.81818 14.0546 7.78184 13.091 9 13.091C10.2182 13.091 11.1818 14.0546 11.1818 15.2727V19.0909C11.1818 19.3765 11.4417 19.6363 11.7273 19.6364H17.4545C17.7401 19.6363 18 19.3765 18 19.0909V7.09124C18 6.92406 17.9195 6.75846 17.7869 6.6566L9.3324 0.111313C9.12868 -0.0482596 8.8443 -0.0255141 8.6676 0.111313Z" fill="#EA4424"/>
</svg>
