<svg width="18" height="19" viewBox="0 0 18 19" fill="none" xmlns="http://www.w3.org/2000/svg">
<path d="M1.15892 6.87742L8.67404 1.05941C8.67404 1.05941 8.67404 1.05941 8.67404 1.05941C8.84736 0.925201 9.12545 0.902262 9.3263 1.05949C9.32634 1.05952 9.32638 1.05955 9.32642 1.05958L16.8413 6.87742C16.8413 6.87743 16.8414 6.87745 16.8414 6.87746C16.9716 6.97761 17.0502 7.13952 17.0502 7.30342V17.97C17.0502 18.2514 16.7969 18.5048 16.5154 18.5048H11.4244C11.1429 18.5048 10.8896 18.2514 10.8895 17.97V14.576C10.8895 13.5208 10.0553 12.6866 9.00012 12.6866C7.94491 12.6866 7.1107 13.5208 7.1107 14.576V17.97C7.11067 18.2514 6.85733 18.5048 6.57584 18.5048H1.48485C1.20338 18.5048 0.95003 18.2514 0.950003 17.97V7.30352V7.30342H1C0.999422 7.15481 1.07157 7.00761 1.18939 6.91707L1.15892 6.87742ZM1.15892 6.87742C1.15889 6.87744 1.15886 6.87746 1.15884 6.87749L1.15892 6.87742ZM2.01971 7.56277L9.00012 2.15462L15.9805 7.56277V17.4351H11.9593V14.576C11.9593 12.9451 10.631 11.6169 9.00012 11.6169C7.36924 11.6169 6.04099 12.9451 6.04099 14.576V17.4351H2.01971V7.56277Z" fill="#333333" stroke="#333333" stroke-width="0.1"/>
</svg>
