<svg width="22" height="19" viewBox="0 0 22 19" fill="none" xmlns="http://www.w3.org/2000/svg">
<path d="M17.0322 10.21C16.6622 10.21 16.3005 10.3102 15.9928 10.4978C15.6852 10.6855 15.4454 10.9522 15.3038 11.2641C15.1623 11.5761 15.1253 11.9194 15.1975 12.2506C15.2698 12.5817 15.448 12.8859 15.7097 13.1246C15.9714 13.3634 16.3048 13.5259 16.6677 13.5917C17.0307 13.6576 17.4068 13.6237 17.7487 13.4945C18.0905 13.3652 18.3827 13.1463 18.5883 12.8655C18.7938 12.5848 18.9035 12.2547 18.9034 11.917C18.9029 11.4643 18.7056 11.0304 18.3547 10.7103C18.0039 10.3903 17.5283 10.2103 17.0322 10.21ZM17.0322 12.6276C16.8783 12.6276 16.7278 12.5859 16.5998 12.5078C16.4718 12.4297 16.3721 12.3188 16.3132 12.189C16.2543 12.0592 16.2389 11.9164 16.2689 11.7786C16.299 11.6408 16.3731 11.5142 16.482 11.4149C16.5908 11.3156 16.7295 11.2479 16.8805 11.2205C17.0315 11.1931 17.188 11.2071 17.3303 11.2609C17.4725 11.3146 17.5941 11.4056 17.6797 11.5224C17.7652 11.6392 17.8109 11.7765 17.811 11.917C17.8108 12.1054 17.7287 12.2861 17.5827 12.4193C17.4367 12.5525 17.2387 12.6275 17.0322 12.6276Z" fill="#8F8F8F"/>
<path d="M21.1108 7.96954C21.1096 7.89419 21.0892 7.82012 21.0515 7.75312C20.8974 6.93597 20.4322 6.19467 19.7378 5.65984C19.0434 5.12501 18.1645 4.83098 17.2558 4.82956H16.2274V0.498515C16.2274 0.417386 16.2057 0.337485 16.1642 0.265746C16.1227 0.194007 16.0626 0.132597 15.9892 0.0868456C15.9158 0.0410938 15.8312 0.0123822 15.7429 0.00320222C15.6545 -0.00597775 15.5651 0.00465138 15.4823 0.034167L2.96282 4.92852C2.12005 5.11208 1.36951 5.54913 0.832056 6.16929C0.294603 6.78944 0.00151873 7.55661 0 8.34725V15.4873C0.00116677 16.42 0.407723 17.3141 1.13047 17.9736C1.85322 18.6331 2.83313 19.004 3.85522 19.005H17.2558C18.2779 19.0039 19.2577 18.633 19.9804 17.9735C20.7031 17.3141 21.1097 16.4199 21.1108 15.4873V8.34725C21.1108 8.24537 21.1034 8.1451 21.094 8.04538C21.1019 8.02056 21.1075 7.9952 21.1108 7.96954ZM19.8365 7.47111H1.27434C1.50157 6.91896 1.93394 6.45708 2.49609 6.166L3.3048 5.87721C3.48595 5.84352 3.67035 5.82651 3.85522 5.82643H17.2558C17.8185 5.8278 18.3672 5.98607 18.8284 6.28003C19.2897 6.57399 19.6414 6.98959 19.8365 7.47111ZM15.135 4.82956H6.23819L15.135 1.22863V4.82956ZM17.2558 18.0081H3.85522C3.12276 18.0074 2.42052 17.7416 1.90257 17.269C1.38462 16.7965 1.09326 16.1557 1.09242 15.4873V8.46797H20.0184V15.4873C20.0176 16.1556 19.7263 16.7964 19.2084 17.269C18.6905 17.7416 17.9883 18.0074 17.2558 18.0081Z" fill="#8F8F8F"/>
</svg>
