<svg width="158" height="265" viewBox="0 0 158 265" fill="none" xmlns="http://www.w3.org/2000/svg">
<path d="M44.6676 123.596C44.5689 122.302 44.5149 120.99 44.5149 119.668C44.5149 96.5703 59.9632 77.8444 78.9999 77.8444C98.0367 77.8444 113.483 96.5703 113.483 119.668C113.483 120.993 113.432 122.303 113.33 123.596H154.116C156.457 114.366 157.634 104.879 157.621 95.3568C157.621 42.6838 122.421 0 78.9999 0C35.5791 0 0.377523 42.6931 0.377523 95.3568C0.36417 104.879 1.54218 114.366 3.8841 123.596H44.6676Z" fill="#EA4424"/>
<path d="M112.78 128.118C109.558 147.166 95.6562 161.494 79 161.494C62.3438 161.494 48.4422 147.163 45.2204 128.118H5.14047C16.159 164.645 45.0677 190.716 79 190.716C112.932 190.716 141.841 164.645 152.858 128.118H112.78Z" fill="#EA4424"/>
<path d="M78.7469 204.915C61.1712 204.915 44.7756 198.788 30.9335 188.197C46.7528 213.71 62.6906 239.147 78.7469 264.508C94.9843 239.018 111.09 213.448 127.065 187.799C113.116 198.635 96.5366 204.915 78.7469 204.915Z" fill="#EA4424"/>
</svg>
