<svg width="98" height="37" viewBox="0 0 98 37" fill="none" xmlns="http://www.w3.org/2000/svg">
<path d="M18.7011 17.0703C17.554 16.2967 16.6537 15.2246 16.0001 13.8539C15.3465 12.4831 15.0208 10.9496 15.023 9.25311C15.023 7.55776 15.3487 6.02445 16.0001 4.65318C16.6515 3.28191 17.5519 2.20976 18.7011 1.43673C19.8464 0.679954 21.1889 0.276489 22.5617 0.276489C23.9344 0.276489 25.2769 0.679954 26.4222 1.43673C27.5688 2.20976 28.4688 3.27785 29.1224 4.64097C29.776 6.0041 30.1017 7.54147 30.0996 9.25311C30.0996 10.9653 29.7739 12.503 29.1224 13.8661C28.471 15.2292 27.5709 16.2973 26.4222 17.0703C25.2766 17.8262 23.9342 18.2291 22.5617 18.2291C21.1891 18.2291 19.8468 17.8262 18.7011 17.0703ZM25.0819 14.6014C25.8283 14.0781 26.4152 13.3468 26.8424 12.4077C27.2696 11.4685 27.483 10.417 27.4824 9.25311C27.4824 8.09031 27.2691 7.03906 26.8424 6.09936C26.4157 5.15967 25.8289 4.42681 25.0819 3.90077C24.3407 3.38957 23.4616 3.11581 22.5613 3.11581C21.6609 3.11581 20.7818 3.38957 20.0406 3.90077C19.2942 4.42409 18.7076 5.15696 18.2809 6.09936C17.8543 7.04177 17.6409 8.09302 17.6409 9.25311C17.6409 10.4165 17.8543 11.468 18.2809 12.4077C18.7076 13.3474 19.2942 14.0786 20.0406 14.6014C20.7816 15.1131 21.6608 15.3872 22.5613 15.3872C23.4618 15.3872 24.3409 15.1131 25.0819 14.6014Z" fill="white"/>
<path d="M39.4737 17.9799L37.2816 12.8686C37.1447 12.8886 37.0063 12.897 36.868 12.8938H34.4455V17.9799H32.4529V0.523895H36.868C37.7979 0.523895 38.6078 0.773073 39.2978 1.27142C39.9878 1.76977 40.5165 2.48444 40.8841 3.41545C41.2521 4.347 41.4362 5.45253 41.4362 6.73206C41.4362 8.04578 41.2394 9.17602 40.8458 10.1228C40.4522 11.0695 39.8876 11.7752 39.1521 12.2399L41.6202 17.9742L39.4737 17.9799ZM38.7539 4.16704C38.3038 3.56989 37.6445 3.27132 36.776 3.27132H34.4455V10.2278H36.7784C37.647 10.2278 38.3063 9.92435 38.7563 9.31743C39.2063 8.71052 39.4311 7.85036 39.4305 6.73695C39.4289 5.62191 39.2034 4.76527 38.7539 4.16704Z" fill="white"/>
<path d="M51.4355 1.19982C52.2086 1.81543 52.8076 2.72553 53.2327 3.93013C53.6577 5.13474 53.8703 6.59341 53.8703 8.30614V17.9799H51.7173V13.4924H45.6915V17.9799H43.5743V8.30614C43.5743 6.5945 43.7869 5.13583 44.2119 3.93013C44.637 2.72444 45.236 1.81434 46.0091 1.19982C46.7821 0.584759 47.6876 0.277222 48.7256 0.277222C49.7635 0.277222 50.6668 0.584759 51.4355 1.19982ZM51.7173 10.7743V8.00567C51.7173 6.39392 51.4523 5.17655 50.9225 4.35357C50.3927 3.53059 49.6528 3.1191 48.7028 3.1191C47.7533 3.1191 47.0136 3.53059 46.4838 4.35357C45.954 5.17655 45.6891 6.39392 45.6891 8.00567V10.7743H51.7173Z" fill="white"/>
<path d="M55.8132 0.523895H60.164C61.2253 0.523895 62.1682 0.885174 62.9928 1.60772C63.8175 2.33027 64.4572 3.35329 64.9121 4.67678C65.367 5.99757 65.5945 7.52247 65.5945 9.25148C65.5945 10.9805 65.367 12.5057 64.9121 13.827C64.4572 15.1483 63.8175 16.1705 62.9928 16.8936C62.1682 17.6167 61.2253 17.9783 60.164 17.9783H55.8132V0.523895ZM60.0785 15.2341C60.7901 15.2415 61.4783 14.9797 62.0051 14.5012C62.5594 14.0126 62.9858 13.3145 63.2844 12.4069C63.5829 11.4992 63.7322 10.4477 63.7322 9.25229C63.7322 8.05799 63.5829 7.00674 63.2844 6.09853C62.9858 5.19033 62.5594 4.49221 62.0051 4.00418C61.4783 3.52565 60.7901 3.26388 60.0785 3.27132H57.6617V15.2414L60.0785 15.2341Z" fill="white"/>
<path d="M71.1129 17.0704C69.9187 16.2968 68.9814 15.2246 68.3012 13.8539C67.621 12.4832 67.2809 10.9496 67.2809 9.25316C67.2809 7.5578 67.621 6.02449 68.3012 4.65323C68.9814 3.28196 69.9187 2.20981 71.1129 1.43677C72.3072 0.663738 73.647 0.277222 75.1323 0.277222C76.6176 0.277222 77.9573 0.663738 79.1516 1.43677C80.3459 2.20981 81.2829 3.27789 81.9626 4.64102C82.6422 6.00414 82.9823 7.54152 82.9829 9.25316C82.9829 10.9653 82.6428 12.503 81.9626 13.8661C81.2824 15.2292 80.3454 16.2973 79.1516 17.0704C77.9573 17.8434 76.6176 18.2296 75.1323 18.2291C73.647 18.2286 72.3072 17.8423 71.1129 17.0704ZM77.7559 14.6014C78.5333 14.0781 79.1443 13.3469 79.5889 12.4077C80.0335 11.4686 80.2555 10.4171 80.255 9.25316C80.255 8.09035 80.033 7.0391 79.5889 6.09941C79.1448 5.15972 78.5339 4.42685 77.7559 3.90082C76.9766 3.3887 76.0644 3.11582 75.1319 3.11582C74.1993 3.11582 73.2872 3.3887 72.5078 3.90082C71.7299 4.42414 71.1192 5.157 70.6757 6.09941C70.2322 7.04182 70.0098 8.09307 70.0088 9.25316C70.0088 10.4165 70.2311 11.468 70.6757 12.4077C71.1203 13.3474 71.731 14.0787 72.5078 14.6014C73.287 15.1141 74.1992 15.3872 75.1319 15.3872C76.0645 15.3872 76.9768 15.1141 77.7559 14.6014Z" fill="white"/>
<path d="M23.1366 25.9347C22.8286 25.7333 22.5815 25.4518 22.4216 25.1204C22.2506 24.7591 22.1619 24.3643 22.1619 23.9645C22.1619 23.5648 22.2506 23.17 22.4216 22.8086C22.5813 22.4771 22.8285 22.1956 23.1366 21.9944C23.4422 21.8023 23.7959 21.7004 24.1569 21.7004C24.5179 21.7004 24.8715 21.8023 25.1772 21.9944C25.4841 22.1937 25.7305 22.4734 25.8897 22.803C26.0592 23.1659 26.147 23.5615 26.147 23.9621C26.147 24.3626 26.0592 24.7583 25.8897 25.1213C25.7301 25.4505 25.4838 25.7301 25.1772 25.9298C24.8713 26.1214 24.5177 26.2229 24.1569 26.2229C23.796 26.2229 23.4424 26.1214 23.1366 25.9298V25.9347ZM24.9011 25.4462C25.1258 25.2931 25.3053 25.0825 25.4206 24.8362C25.5462 24.5639 25.6112 24.2677 25.6112 23.9678C25.6112 23.6679 25.5462 23.3717 25.4206 23.0994C25.3053 22.8532 25.1258 22.6425 24.9011 22.4895C24.6816 22.3408 24.422 22.2627 24.1569 22.2655C23.8915 22.2627 23.6314 22.3395 23.4102 22.4862C23.1831 22.6382 23.0016 22.849 22.8849 23.0961C22.7599 23.3685 22.6952 23.6648 22.6952 23.9645C22.6952 24.2643 22.7599 24.5605 22.8849 24.833C23.0016 25.0801 23.1831 25.2909 23.4102 25.4429C23.6314 25.5895 23.8915 25.6664 24.1569 25.6636C24.4213 25.6681 24.6809 25.5919 24.9011 25.4453V25.4462Z" fill="white"/>
<path d="M29.8837 26.1741L29.137 24.8167C29.0442 24.8248 28.9742 24.8289 28.9188 24.8289H28.0654V26.1741H27.5703V21.7525H28.9212C29.3696 21.7525 29.7225 21.8882 29.9798 22.1596C30.2371 22.4311 30.3658 22.8081 30.3658 23.2907C30.3746 23.5935 30.3065 23.8935 30.1679 24.1628C30.0436 24.3955 29.8449 24.5798 29.6036 24.6864L30.4269 26.1741H29.8837ZM29.6215 24.0333C29.7844 23.8607 29.8658 23.6142 29.8658 23.294C29.8658 22.9737 29.7844 22.7294 29.6215 22.5611C29.4587 22.3909 29.2144 22.3054 28.9041 22.3054H28.0654V24.2955H28.9041C29.2179 24.2955 29.457 24.2092 29.6215 24.0366V24.0333Z" fill="white"/>
<path d="M31.6548 21.7558H33.0057C33.3281 21.7507 33.6438 21.8483 33.9071 22.0343C34.1797 22.2321 34.3913 22.5023 34.5178 22.8144C34.8077 23.5555 34.8077 24.3786 34.5178 25.1196C34.3911 25.4316 34.1795 25.7018 33.9071 25.8997C33.6437 26.0855 33.328 26.1828 33.0057 26.1774H31.6548V21.7558ZM32.978 25.6286C33.2223 25.6328 33.4616 25.5599 33.662 25.4201C33.8659 25.272 34.024 25.0693 34.118 24.8355C34.3308 24.276 34.3308 23.658 34.118 23.0986C34.024 22.8647 33.8659 22.6621 33.662 22.5139C33.4618 22.3738 33.2223 22.3008 32.978 22.3054H32.1124V25.6286H32.978Z" fill="white"/>
<path d="M42.0158 26.1741L41.3399 24.8167C41.2585 24.8248 41.1909 24.8289 41.1437 24.8289H40.3693V26.1741H39.9222V21.7525H41.1437C41.5492 21.7525 41.8681 21.8882 42.1005 22.1596C42.3328 22.4311 42.449 22.8081 42.449 23.2907C42.4574 23.5913 42.3964 23.8897 42.2707 24.1628C42.1638 24.3892 41.9844 24.5735 41.7609 24.6864L42.5027 26.1709L42.0158 26.1741ZM41.778 24.0333C41.9278 23.8607 42.0019 23.614 42.0019 23.294C42.0019 22.9739 41.9278 22.7288 41.778 22.5611C41.6282 22.3933 41.4132 22.3054 41.1266 22.3054H40.3693V24.2955H41.1298C41.4132 24.2955 41.6293 24.2092 41.778 24.0366V24.0333Z" fill="white"/>
<path d="M49.0986 22.2199C49.3483 22.5636 49.4734 23.0554 49.474 23.6954V26.1741H49.0106V24.9527H47.1378V26.1741H46.6842V23.6922C46.6842 23.0521 46.8093 22.5603 47.0596 22.2167C47.1771 22.0572 47.3305 21.9277 47.5073 21.8384C47.6841 21.749 47.8794 21.7025 48.0775 21.7025C48.2755 21.7025 48.4708 21.749 48.6476 21.8384C48.8244 21.9277 48.9778 22.0572 49.0953 22.2167L49.0986 22.2199ZM49.0106 24.4088V23.6384C49.0106 23.1879 48.9292 22.8467 48.7663 22.6149C48.6869 22.5073 48.5832 22.4198 48.4638 22.3596C48.3444 22.2993 48.2125 22.2679 48.0787 22.2679C47.9449 22.2679 47.813 22.2993 47.6936 22.3596C47.5741 22.4198 47.4705 22.5073 47.391 22.6149C47.2281 22.8467 47.1467 23.1879 47.1467 23.6384V24.4088H49.0106Z" fill="white"/>
<path d="M53.7156 22.281L52.6065 22.2736V26.1741H52.0276V22.2736L50.9144 22.3371V21.7671L53.7131 21.7419L53.7156 22.281Z" fill="white"/>
<path d="M57.8743 21.7558H58.9874C59.2613 21.7537 59.5264 21.8529 59.7317 22.0343C59.9653 22.2454 60.1389 22.5145 60.2349 22.8143C60.4748 23.564 60.4748 24.3699 60.2349 25.1196C60.1386 25.4193 59.965 25.6884 59.7317 25.8997C59.5263 26.0808 59.2612 26.1797 58.9874 26.1774H57.8743V21.7558ZM58.9646 25.6285C59.1719 25.6308 59.3728 25.5566 59.5289 25.4201C59.7041 25.2622 59.834 25.0603 59.9051 24.8354C60.081 24.2698 60.081 23.6641 59.9051 23.0985C59.834 22.8736 59.7041 22.6718 59.5289 22.5139C59.373 22.3771 59.172 22.3028 58.9646 22.3054H58.2513V25.6285H58.9646Z" fill="white"/>
<path d="M63.0507 25.9348C62.755 25.7296 62.5203 25.4482 62.3716 25.1205C62.2089 24.7568 62.1249 24.3629 62.1249 23.9646C62.1249 23.5662 62.2089 23.1723 62.3716 22.8087C62.5201 22.4808 62.7548 22.1994 63.0507 21.9944C63.3375 21.8028 63.6747 21.7005 64.0197 21.7005C64.3647 21.7005 64.7019 21.8028 64.9887 21.9944C65.2835 22.1975 65.5174 22.4771 65.6654 22.803C65.8265 23.1682 65.9097 23.563 65.9097 23.9621C65.9097 24.3613 65.8265 24.7561 65.6654 25.1213C65.5169 25.447 65.2831 25.7264 64.9887 25.9299C64.7017 26.121 64.3645 26.223 64.0197 26.223C63.6749 26.223 63.3377 26.121 63.0507 25.9299V25.9348ZM64.7265 25.4462C64.9422 25.2903 65.1125 25.0798 65.22 24.8363C65.3392 24.5623 65.4007 24.2667 65.4007 23.9678C65.4007 23.669 65.3392 23.3734 65.22 23.0994C65.1125 22.8559 64.9422 22.6454 64.7265 22.4895C64.5211 22.3431 64.2744 22.2658 64.0221 22.2688C63.7685 22.2663 63.5204 22.3435 63.3129 22.4895C63.0946 22.6441 62.9222 22.8549 62.8137 23.0994C62.695 23.3735 62.6338 23.6691 62.6338 23.9678C62.6338 24.2666 62.695 24.5621 62.8137 24.8363C62.9222 25.0808 63.0946 25.2916 63.3129 25.4462C63.5204 25.5922 63.7685 25.6694 64.0221 25.6669C64.2745 25.6696 64.5212 25.592 64.7265 25.4454V25.4462Z" fill="white"/>
<path d="M68.6521 25.9094C68.3564 25.7043 68.1218 25.4229 67.973 25.0951C67.8104 24.7315 67.7263 24.3376 67.7263 23.9393C67.7263 23.5409 67.8104 23.147 67.973 22.7834C68.1215 22.4555 68.3563 22.1741 68.6521 21.9691C68.939 21.7774 69.2762 21.6751 69.6211 21.6751C69.9661 21.6751 70.3033 21.7774 70.5901 21.9691C70.8849 22.1722 71.1188 22.4517 71.2668 22.7777C71.4279 23.1429 71.5111 23.5376 71.5111 23.9368C71.5111 24.336 71.4279 24.7308 71.2668 25.096C71.1184 25.4216 70.8845 25.701 70.5901 25.9045C70.3031 26.0957 69.966 26.1977 69.6211 26.1977C69.2763 26.1977 68.9392 26.0957 68.6521 25.9045V25.9094ZM70.3279 25.4209C70.5437 25.265 70.714 25.0545 70.8214 24.811C70.9406 24.537 71.0022 24.2413 71.0022 23.9425C71.0022 23.6437 70.9406 23.3481 70.8214 23.0741C70.714 22.8306 70.5437 22.6201 70.3279 22.4642C70.1225 22.3178 69.8758 22.2405 69.6236 22.2435C69.3699 22.241 69.1218 22.3182 68.9143 22.4642C68.6961 22.6188 68.5236 22.8295 68.4152 23.0741C68.2965 23.3482 68.2352 23.6438 68.2352 23.9425C68.2352 24.2413 68.2965 24.5368 68.4152 24.811C68.5236 25.0555 68.6961 25.2662 68.9143 25.4209C69.1218 25.5669 69.3699 25.644 69.6236 25.6415C69.8756 25.6441 70.122 25.5665 70.3271 25.42L70.3279 25.4209Z" fill="white"/>
<path d="M75.3814 26.1741L74.7479 24.8167C74.6664 24.8248 74.6078 24.8289 74.563 24.8289H73.8383V26.1741H73.4214V21.7525H74.5614C74.7322 21.7449 74.9024 21.7778 75.0581 21.8486C75.2138 21.9193 75.3505 22.0259 75.4571 22.1596C75.6753 22.434 75.7828 22.8111 75.7828 23.2907C75.791 23.5901 75.7338 23.8877 75.6151 24.1628C75.5187 24.3858 75.3504 24.5701 75.1371 24.6864L75.8333 26.1708L75.3814 26.1741ZM75.1591 24.0333C75.2986 23.8607 75.3684 23.6142 75.3684 23.2939C75.3684 22.9736 75.2986 22.7294 75.1591 22.5611C75.019 22.3906 74.8163 22.3054 74.5508 22.3054H73.8383V24.2955H74.5508C74.8163 24.2955 75.019 24.2092 75.1591 24.0366V24.0333Z" fill="white"/>
<path d="M39.0939 27.0992H36.2183V22.0409H39.0939V22.6214H36.9072V24.1888H39.0087V24.7693H36.9072V26.5109H39.0939V27.0992Z" fill="white"/>
<path d="M3.41025 31.9491H0.841978V33.7039H3.2759V34.317H0.841978V36.7257H0V31.3163H3.41025V31.9491Z" fill="white"/>
<path d="M9.21701 33.9913C9.22605 34.4187 9.16103 34.8443 9.02483 35.2494C8.91408 35.5736 8.73779 35.8716 8.50695 36.1248C8.29455 36.3515 8.03336 36.5269 7.74314 36.6378C7.44829 36.7501 7.13524 36.807 6.81974 36.8055C6.47184 36.8135 6.12608 36.7491 5.80431 36.6166C5.52383 36.4975 5.27733 36.3106 5.08692 36.0727C4.88747 35.816 4.74355 35.5207 4.6643 35.2054C4.56704 34.8292 4.52021 34.4418 4.52506 34.0532C4.51645 33.6288 4.58062 33.206 4.71479 32.8033C4.82416 32.4788 4.99999 32.1806 5.23105 31.9279C5.4424 31.7015 5.70247 31.5261 5.9916 31.4149C6.28556 31.3025 6.59784 31.2456 6.91256 31.2472C7.2606 31.2394 7.60645 31.3043 7.92799 31.4377C8.20828 31.5583 8.45524 31.745 8.64782 31.9817C8.84867 32.2366 8.99426 32.5305 9.07532 32.8448C9.17417 33.2188 9.22184 33.6045 9.21701 33.9913ZM8.36037 34.0451C8.3625 33.7527 8.33522 33.4608 8.27895 33.1738C8.23399 32.9329 8.1454 32.7022 8.01756 32.4931C7.90293 32.3081 7.74286 32.1556 7.5526 32.0501C7.34068 31.9399 7.10408 31.8858 6.86534 31.8929C6.6313 31.8862 6.39996 31.9443 6.1968 32.0607C6.00918 32.1733 5.85139 32.3294 5.73672 32.5158C5.60956 32.7237 5.51869 32.9517 5.46801 33.1901C5.40811 33.4598 5.37861 33.7354 5.38006 34.0117C5.37658 34.3055 5.40387 34.5989 5.46149 34.8871C5.50761 35.1269 5.59613 35.3566 5.72288 35.5654C5.83574 35.7496 5.99421 35.9016 6.18296 36.0067C6.3923 36.1168 6.6265 36.1709 6.86289 36.1639C7.09764 36.17 7.3296 36.112 7.53387 35.9961C7.72293 35.8837 7.88236 35.7276 7.99883 35.5409C8.12723 35.334 8.21896 35.1065 8.26999 34.8683C8.33037 34.5976 8.36041 34.3209 8.35956 34.0434L8.36037 34.0451Z" fill="white"/>
<path d="M14.4268 33.9913C14.4359 34.4187 14.3709 34.8443 14.2347 35.2494C14.1239 35.5736 13.9476 35.8716 13.7168 36.1248C13.5044 36.3515 13.2432 36.5269 12.953 36.6378C12.6581 36.7501 12.3451 36.807 12.0296 36.8055C11.6817 36.8135 11.3359 36.7491 11.0141 36.6166C10.7337 36.4975 10.4872 36.3106 10.2968 36.0727C10.0977 35.8158 9.95383 35.5205 9.87414 35.2054C9.77687 34.8292 9.73005 34.4418 9.7349 34.0532C9.72629 33.6288 9.79045 33.206 9.92462 32.8033C10.034 32.4788 10.2098 32.1806 10.4409 31.9279C10.6522 31.7015 10.9123 31.5261 11.2014 31.4149C11.4954 31.3025 11.8077 31.2456 12.1224 31.2472C12.4704 31.2394 12.8163 31.3043 13.1378 31.4377C13.4181 31.5583 13.6651 31.745 13.8577 31.9817C14.0585 32.2366 14.2041 32.5305 14.2852 32.8448C14.384 33.2188 14.4317 33.6045 14.4268 33.9913ZM13.5702 34.0451C13.5723 33.7527 13.5451 33.4608 13.4888 33.1738C13.4438 32.9329 13.3552 32.7022 13.2274 32.4931C13.1128 32.3081 12.9527 32.1556 12.7624 32.0501C12.5505 31.9399 12.3139 31.8858 12.0752 31.8929C11.8411 31.8862 11.6098 31.9443 11.4066 32.0607C11.219 32.1733 11.0612 32.3294 10.9466 32.5158C10.8194 32.7237 10.7285 32.9517 10.6778 33.1901C10.6179 33.4598 10.5884 33.7354 10.5899 34.0117C10.5864 34.3055 10.6137 34.5989 10.6713 34.8871C10.7174 35.1269 10.806 35.3566 10.9327 35.5654C11.0456 35.7496 11.204 35.9016 11.3928 36.0067C11.6021 36.1168 11.8363 36.1709 12.0727 36.1639C12.3075 36.17 12.5394 36.112 12.7437 35.9961C12.9328 35.8837 13.0922 35.7276 13.2087 35.5409C13.3371 35.334 13.4288 35.1065 13.4798 34.8683C13.5408 34.5976 13.5713 34.3209 13.571 34.0434L13.5702 34.0451Z" fill="white"/>
<path d="M19.5528 33.9645C19.5539 34.2144 19.5315 34.4638 19.4861 34.7096C19.4442 34.9401 19.3719 35.1641 19.2711 35.3756C19.1724 35.58 19.0427 35.7678 18.8867 35.9326C18.7195 36.1069 18.524 36.2517 18.3086 36.3609C18.0569 36.4878 17.7893 36.5804 17.513 36.6362C17.1734 36.7042 16.8277 36.7367 16.4813 36.7331H15.1858V31.3237H16.7468C17.6914 31.3237 18.3955 31.5409 18.8591 31.9752C19.3227 32.4095 19.5539 33.0726 19.5528 33.9645ZM18.6881 34.0182C18.6954 33.69 18.6548 33.3625 18.5675 33.046C18.5012 32.8049 18.3755 32.5842 18.2019 32.4043C18.03 32.2365 17.8186 32.1147 17.5871 32.0501C17.3036 31.9728 17.0105 31.936 16.7167 31.941H16.009V36.0939H16.6246C18.0003 36.0928 18.6881 35.4009 18.6881 34.0182Z" fill="white"/>
<path d="M27.2324 33.9099C27.2357 34.2412 27.201 34.5718 27.1289 34.8952C27.067 35.1718 26.9681 35.4389 26.835 35.6891L27.6371 36.7322H26.7202L26.3708 36.2811C26.1863 36.4453 25.9729 36.5737 25.7414 36.6598C25.5005 36.7484 25.2456 36.7926 24.989 36.7901C24.7566 36.7944 24.5254 36.7566 24.3066 36.6785C24.1191 36.6115 23.9483 36.5048 23.8058 36.3658C23.6697 36.2307 23.5647 36.0676 23.498 35.8878C23.4259 35.6918 23.3903 35.4843 23.393 35.2755C23.3907 35.0856 23.4182 34.8966 23.4744 34.7152C23.523 34.5589 23.5952 34.4109 23.6886 34.2763C23.7766 34.1495 23.8815 34.0353 24.0004 33.9368C24.1183 33.8386 24.2423 33.748 24.3717 33.6656L24.2838 33.5378C24.1444 33.3625 24.0327 33.167 23.9524 32.958C23.8821 32.7744 23.8452 32.5797 23.8433 32.3831C23.8412 32.1957 23.8721 32.0094 23.9345 31.8326C23.9915 31.6674 24.0842 31.5168 24.2061 31.3915C24.328 31.2663 24.476 31.1694 24.6396 31.1079C24.8291 31.036 25.0306 31.0009 25.2333 31.0045C25.4254 31.0007 25.6166 31.033 25.7968 31.0998C25.9494 31.1569 26.0881 31.2457 26.2039 31.3604C26.3113 31.4694 26.3945 31.5998 26.4482 31.7431C26.503 31.8908 26.5306 32.0472 26.5296 32.2048C26.5337 32.3911 26.4993 32.5763 26.4286 32.7487C26.3636 32.9008 26.2736 33.0409 26.1624 33.1632C26.0502 33.2849 25.9236 33.3924 25.7854 33.4832C25.6437 33.5777 25.4987 33.6689 25.3505 33.7568L26.3749 35.089C26.4995 34.7089 26.5546 34.3095 26.5378 33.9099H27.2324ZM24.112 35.1883C24.1101 35.3254 24.133 35.4617 24.1796 35.5906C24.2215 35.7067 24.2869 35.8129 24.3717 35.9025C24.4574 35.9912 24.5617 36.0599 24.6771 36.1036C24.8073 36.1518 24.9454 36.1756 25.0842 36.1736C25.2545 36.1738 25.4229 36.1385 25.5788 36.0701C25.7346 36.0017 25.8746 35.9016 25.9897 35.7763L24.7268 34.1257C24.6405 34.1873 24.5589 34.255 24.4825 34.3284C24.4081 34.3988 24.3427 34.4782 24.2879 34.5646C24.2324 34.652 24.1896 34.7469 24.1608 34.8463C24.1279 34.9562 24.1115 35.0704 24.112 35.1851V35.1883ZM25.8269 32.2748C25.8391 32.0968 25.7806 31.9213 25.664 31.7862C25.6052 31.7266 25.5345 31.6802 25.4565 31.6499C25.3784 31.6196 25.2949 31.6061 25.2113 31.6103C25.1154 31.6084 25.0203 31.6267 24.932 31.6641C24.8535 31.6981 24.7834 31.749 24.7268 31.8131C24.6704 31.8785 24.628 31.9547 24.6022 32.037C24.5739 32.1266 24.5599 32.22 24.5607 32.3139C24.5601 32.4566 24.5878 32.598 24.6421 32.73C24.7087 32.8815 24.794 33.024 24.8961 33.1542L25.0036 33.2992C25.1176 33.2332 25.2243 33.1656 25.3253 33.0981C25.4214 33.034 25.51 32.9591 25.5891 32.8749C25.6634 32.7958 25.7237 32.7047 25.7674 32.6054C25.8108 32.4996 25.8311 32.3858 25.8269 32.2715V32.2748Z" fill="white"/>
<path d="M34.2605 32.2472C34.057 32.141 33.8427 32.0569 33.6213 31.9963C33.3874 31.9355 33.1465 31.9057 32.9047 31.9076C32.6339 31.9028 32.3651 31.955 32.1157 32.0607C31.8916 32.1589 31.6928 32.3067 31.5343 32.4931C31.3699 32.691 31.2464 32.9196 31.1711 33.1657C31.0845 33.4473 31.0422 33.7407 31.0457 34.0353C31.042 34.3349 31.0765 34.6337 31.1483 34.9245C31.2064 35.1669 31.3152 35.3942 31.4675 35.5914C31.6153 35.7751 31.8068 35.9188 32.0245 36.0092C32.2833 36.1123 32.5603 36.1616 32.8388 36.1541C32.8933 36.1541 32.9512 36.1541 33.0139 36.146C33.0766 36.1378 33.1393 36.1329 33.2011 36.1232C33.263 36.1134 33.3241 36.1012 33.3827 36.0873C33.4355 36.0757 33.4874 36.0607 33.5383 36.0426V34.3171H32.3983V33.7088H34.2874V36.4733C34.1673 36.5274 34.0441 36.5744 33.9185 36.6142C33.7883 36.6558 33.6559 36.6903 33.522 36.7176C33.3868 36.7453 33.2524 36.7656 33.1148 36.7795C32.9858 36.7932 32.8562 36.8003 32.7264 36.8007C32.3756 36.8059 32.0267 36.7469 31.6971 36.6264C31.4006 36.517 31.1334 36.3406 30.9162 36.111C30.6918 35.8668 30.5232 35.5767 30.422 35.2608C30.3007 34.8795 30.2424 34.481 30.2493 34.0809C30.2428 33.6748 30.3079 33.2707 30.4415 32.8872C30.557 32.5544 30.7406 32.2493 30.9806 31.9915C31.2148 31.7464 31.5 31.5557 31.816 31.4329C32.1598 31.3016 32.5253 31.2364 32.8933 31.2407C33.1329 31.2396 33.372 31.2611 33.6075 31.305C33.832 31.3469 34.0507 31.4155 34.2589 31.5094L34.2605 32.2472Z" fill="white"/>
<path d="M39.2537 36.729H38.397L37.5657 34.9994C37.5126 34.8847 37.4483 34.7756 37.3735 34.6737C37.3153 34.5934 37.244 34.5235 37.1626 34.4669C37.0883 34.4161 37.0056 34.3789 36.9183 34.357C36.8193 34.3314 36.7176 34.318 36.6154 34.3171H36.2571V36.7257H35.4982V31.3164H36.9899C37.272 31.3111 37.5533 31.3462 37.8254 31.4206C38.0331 31.4773 38.227 31.5757 38.3954 31.7097C38.5401 31.8297 38.6522 31.9843 38.7211 32.1592C38.7924 32.3446 38.8278 32.5419 38.8254 32.7406C38.8264 32.903 38.8006 33.0646 38.7488 33.2186C38.6977 33.3668 38.6205 33.5047 38.5208 33.6257C38.4149 33.7526 38.2879 33.8603 38.1454 33.9441C37.986 34.0382 37.8125 34.1061 37.6316 34.1452C37.7878 34.1974 37.9259 34.2928 38.0298 34.4205C38.1598 34.5825 38.272 34.758 38.3645 34.9441L39.2537 36.729ZM38.0388 32.8057C38.0388 32.5158 37.9457 32.2987 37.7595 32.1543C37.5733 32.0099 37.3111 31.9382 36.9729 31.9393H36.2563V33.7267H36.8702C37.0351 33.7292 37.1994 33.7092 37.3588 33.6673C37.4915 33.6326 37.6161 33.572 37.7253 33.4889C37.8251 33.412 37.9054 33.3127 37.9598 33.199C38.0155 33.0756 38.0425 32.9411 38.0388 32.8057Z" fill="white"/>
<path d="M44.1411 33.9913C44.1496 34.4175 44.0897 34.8422 43.9636 35.2494C43.8636 35.5697 43.7014 35.8672 43.4864 36.1248C43.2953 36.3485 43.0543 36.5242 42.7828 36.6378C42.5131 36.7496 42.2239 36.8067 41.9319 36.8055C41.6098 36.8132 41.2901 36.7486 40.9963 36.6166C40.7335 36.4941 40.506 36.3069 40.3351 36.0727C40.1491 35.8122 40.0166 35.5174 39.945 35.2054C39.8555 34.828 39.8125 34.4411 39.8172 34.0532C39.8088 33.63 39.8676 33.2081 39.9914 32.8033C40.0901 32.4827 40.2517 32.1851 40.467 31.9279C40.6577 31.7044 40.8981 31.5287 41.1689 31.4149C41.4377 31.3028 41.7262 31.2458 42.0174 31.2472C42.3396 31.2396 42.6594 31.3047 42.953 31.4377C43.2155 31.5615 43.4432 31.7484 43.6159 31.9817C43.8029 32.2406 43.9371 32.5339 44.0108 32.8448C44.1016 33.2201 44.1453 33.6052 44.1411 33.9913ZM43.352 34.0451C43.3541 33.7529 43.3291 33.4613 43.2771 33.1738C43.2351 32.9346 43.1525 32.7044 43.0328 32.493C42.9302 32.304 42.7766 32.1475 42.5894 32.0414C42.4023 31.9354 42.1892 31.8839 41.9742 31.8929C41.757 31.8867 41.5427 31.9451 41.3586 32.0606C41.1825 32.1759 41.037 32.3321 40.9344 32.5158C40.8172 32.726 40.7347 32.9536 40.6901 33.1901C40.6348 33.4604 40.6076 33.7357 40.6087 34.0117C40.6078 34.3054 40.635 34.5985 40.6901 34.8871C40.733 35.1252 40.8155 35.3545 40.9344 35.5654C41.0356 35.7465 41.1817 35.8984 41.3586 36.0067C41.5488 36.1161 41.7656 36.1705 41.9848 36.1639C42.2031 36.1695 42.4182 36.1112 42.6037 35.9961C42.7807 35.8808 42.9276 35.7247 43.032 35.5409C43.151 35.3317 43.2351 35.1045 43.2812 34.8683C43.3336 34.5966 43.3573 34.3201 43.352 34.0434V34.0451Z" fill="white"/>
<path d="M48.6181 36.5262C48.1722 36.706 47.6957 36.7975 47.215 36.7957C46.4273 36.7957 45.8226 36.5672 45.4008 36.1101C44.979 35.653 44.7678 34.9777 44.7673 34.0841C44.7622 33.6856 44.8213 33.2889 44.9423 32.9091C45.0462 32.581 45.2161 32.2775 45.4415 32.0175C45.6576 31.7731 45.9255 31.58 46.2257 31.4524C46.5523 31.316 46.9035 31.2483 47.2574 31.2537C47.4994 31.252 47.741 31.2735 47.9788 31.318C48.1984 31.36 48.4128 31.4258 48.6181 31.5142V32.239C48.4192 32.1336 48.2088 32.0516 47.991 31.9947C47.7596 31.9376 47.5218 31.9102 47.2834 31.9132C47.0393 31.91 46.7973 31.9585 46.5734 32.0557C46.3636 32.1496 46.1789 32.2916 46.0343 32.4702C45.878 32.6662 45.7621 32.8912 45.6931 33.1322C45.6093 33.4219 45.569 33.7224 45.5734 34.0239C45.5734 34.7247 45.7197 35.2532 46.0123 35.6093C46.3049 35.9654 46.7343 36.1432 47.3005 36.1427C47.5318 36.1433 47.7623 36.1159 47.987 36.0612C48.2046 36.0081 48.4161 35.9325 48.6181 35.8357V36.5262Z" fill="white"/>
<path d="M53.2018 36.729H50.0342V31.3196H53.2018V31.941H50.7931V33.6168H53.1081V34.2356H50.7931V36.0979H53.2018V36.729Z" fill="white"/>
<path d="M58.4596 36.729H57.6022L56.7708 34.9994C56.7183 34.8846 56.6542 34.7754 56.5794 34.6737C56.521 34.5936 56.4497 34.5238 56.3685 34.4669C56.2942 34.4161 56.2115 34.3789 56.1242 34.357C56.0258 34.3338 55.9249 34.3226 55.8237 34.3236H55.4655V36.7322H54.7065V31.3229H56.1983C56.4806 31.3176 56.7622 31.3527 57.0346 31.4271C57.2422 31.4839 57.4362 31.5822 57.6046 31.7162C57.7494 31.8361 57.8614 31.9908 57.9303 32.1657C58.0022 32.351 58.0379 32.5484 58.0354 32.7471C58.0362 32.9096 58.01 33.0711 57.958 33.2251C57.9075 33.3736 57.8303 33.5116 57.73 33.6323C57.6243 33.7594 57.4973 33.8671 57.3546 33.9506C57.1954 34.0451 57.0218 34.113 56.8408 34.1518C56.9972 34.2038 57.1356 34.2993 57.2398 34.427C57.3692 34.5894 57.4814 34.7649 57.5745 34.9506L58.4596 36.729ZM57.2447 32.8057C57.2447 32.5158 57.151 32.2992 56.9654 32.1543C56.7797 32.0094 56.5167 31.9393 56.178 31.9393H55.4622V33.7267H56.077C56.2402 33.7289 56.4029 33.7089 56.5607 33.6673C56.6936 33.6326 56.8184 33.572 56.9279 33.4889C57.0273 33.4116 57.1075 33.3124 57.1624 33.199C57.2193 33.0759 57.2474 32.9414 57.2447 32.8057Z" fill="white"/>
<path d="M63.5806 31.3196L61.5636 34.7967V36.729H60.7998V34.7796L58.7828 31.3196H59.6997L60.808 33.2984L61.2151 34.0931L61.5905 33.3725L62.7118 31.3196H63.5806Z" fill="white"/>
<path d="M70.1105 33.9645C70.1112 34.2138 70.0935 34.4628 70.0576 34.7095C70.0251 34.9357 69.9683 35.1576 69.8882 35.3716C69.8138 35.5703 69.7121 35.7578 69.5861 35.9285C69.4609 36.0968 69.3071 36.2418 69.1318 36.3569C68.9389 36.4812 68.7276 36.5741 68.5056 36.6321C68.2396 36.7001 67.9658 36.7327 67.6913 36.729H66.6726V31.3196H67.8989C68.6416 31.3196 69.1953 31.5368 69.5601 31.9711C69.9249 32.4054 70.1084 33.0698 70.1105 33.9645ZM69.4298 34.0182C69.4355 33.6916 69.4038 33.3654 69.3353 33.0459C69.287 32.8138 69.1889 32.5949 69.0479 32.4043C68.9212 32.243 68.752 32.1203 68.5593 32.0501C68.3396 31.9733 68.108 31.9363 67.8753 31.941H67.3192V36.0938H67.8028C68.8886 36.0928 69.4314 35.4009 69.4314 34.0182H69.4298Z" fill="white"/>
<path d="M73.8116 36.729H71.1073V31.3196H73.8116V31.941H71.7555V33.6168H73.731V34.2356H71.7555V36.0979H73.8116V36.729Z" fill="white"/>
<path d="M78.0581 36.729H75.3213V31.3196H75.9801V36.1003H78.0581V36.729Z" fill="white"/>
<path d="M79.5214 31.3196H80.2314C80.2189 33.123 80.2065 34.9262 80.194 36.729H79.5425C79.5333 34.9262 79.5262 33.123 79.5214 31.3196Z" fill="white"/>
<path d="M85.6927 31.3196L84.0772 36.729H83.2034L81.6245 31.3196H82.3574L83.3834 34.966L83.6749 36.0336L83.9729 34.966L85.003 31.3196H85.6927Z" fill="white"/>
<path d="M89.1422 36.729H86.4387V31.3196H89.1422V31.941H87.0869V33.6168H89.0624V34.2356H87.0869V36.0979H89.1422V36.729Z" fill="white"/>
<path d="M93.6297 36.729H92.8969L92.1876 34.9994C92.1432 34.8861 92.0887 34.7771 92.0248 34.6737C91.9764 34.5954 91.9156 34.5256 91.8448 34.4669C91.7822 34.4165 91.7103 34.3792 91.6331 34.3569C91.5496 34.3338 91.4632 34.3226 91.3766 34.3235H91.0712V36.7322H90.4198V31.3229H91.6942C91.9358 31.3178 92.1766 31.353 92.4067 31.4271C92.5889 31.4862 92.7557 31.5849 92.8952 31.7162C93.023 31.8417 93.119 31.9957 93.1754 32.1657C93.2366 32.3533 93.2666 32.5497 93.2641 32.7471C93.2649 32.9087 93.243 33.0696 93.199 33.2251C93.1566 33.3704 93.0909 33.5079 93.0044 33.6322C92.9169 33.7563 92.8083 33.8641 92.6835 33.9506C92.5508 34.0434 92.4024 34.1115 92.2454 34.1517C92.3836 34.2078 92.5021 34.3036 92.5858 34.427C92.6975 34.592 92.7932 34.7673 92.8716 34.9505L93.6297 36.729ZM92.5923 32.8057C92.5923 32.5158 92.5128 32.2987 92.3537 32.1543C92.1947 32.0099 91.971 31.9382 91.6828 31.9393H91.0712V33.7267H91.5948C91.735 33.7287 91.8746 33.7086 92.0085 33.6672C92.1243 33.6309 92.231 33.5701 92.3212 33.4889C92.4089 33.4086 92.4774 33.3095 92.5215 33.199C92.5707 33.0738 92.5947 32.9402 92.5923 32.8057Z" fill="white"/>
<path d="M97.9999 31.3196L96.2785 34.7967V36.729H95.6271V34.7796L93.9065 31.3196H94.689L95.6344 33.2984L95.9838 34.0931L96.3046 33.3725L97.2614 31.3196H97.9999Z" fill="white"/>
</svg>
